<?xml version="1.0" encoding="utf-8"?>
<!-- Generator: Adobe Illustrator 16.0.0, SVG Export Plug-In . SVG Version: 6.00 Build 0)  -->
<!DOCTYPE svg PUBLIC "-//W3C//DTD SVG 1.1//EN" "http://www.w3.org/Graphics/SVG/1.1/DTD/svg11.dtd">
<svg version="1.1" id="Calque_1" xmlns="http://www.w3.org/2000/svg" xmlns:xlink="http://www.w3.org/1999/xlink" x="0px" y="0px"
	 width="406.834px" height="119.746px" viewBox="0 0 406.834 119.746" enable-background="new 0 0 406.834 119.746"
	 xml:space="preserve">
<g>
	<g>
		<path fill="#F5F5F5" d="M37.154,75.661c-0.178,0.013-0.354,0.029-0.531,0.053L4.205,77.103l-0.006,0.004
			c-0.054-0.088-0.11-0.18-0.168-0.27l0.002-0.004c0.266-0.025,0.528-0.053,0.794-0.074v0.092c0.401,0.336,0.71-0.017,1.068-0.035
			c0.095-0.008,0.19-0.016,0.285-0.033l-0.005-0.148c0.632-0.062,1.267-0.113,1.903-0.168L37.154,75.661z"/>
		<path fill="#F5F5F5" d="M38.337,106.403l-33.176,6.045c-2.377-0.424-4.692-0.545-6.953-2.211l39.667-3.955
			C38.028,106.333,38.18,106.371,38.337,106.403z"/>
		<path fill="#F5F5F5" d="M0.83,86.657l35.955-1.026c-0.078,0.021-0.155,0.047-0.229,0.081L0.865,87.669L0.83,86.657z"/>
		<path fill="#F5F5F5" d="M37.109,95.944l-39.266,3.828l-0.026-1.891l39.181-2.048C37.025,95.903,37.056,95.931,37.109,95.944z"/>
	</g>
	<polygon fill="#B1B1B1" points="70.952,20.9 71.214,22.855 44.343,20.751 44.049,18.448 53.141,19.274 54.367,19.387 
		63.363,20.208 64.625,20.323 	"/>
	<polygon fill="#B1B1B1" points="61.723,31.039 61.956,32.913 43.166,30.236 43.166,27.921 43.801,28.026 53.766,29.698 
		55.004,29.911 	"/>
	<polygon fill="#B1B1B1" points="51.018,40.441 51.118,42.774 42.069,40.174 41.958,37.359 43.114,37.751 44.352,38.169 	"/>
	<path fill="#B1B1B1" d="M40.678,40.151l-4.29,3.552c-0.185-0.562,0.049-1.94,0-2.106l4.29-4.006
		C40.574,37.882,40.264,39.075,40.678,40.151z"/>
	<path fill="#B1B1B1" d="M32.305,48.43l1.211-0.265c0,0,5.588-1.203,5.537-1.173c-0.157,0.095,0.283,1.884,0.369,1.906
		c0.089,0.017-13.625,2.58-13.625,2.58c0.082-0.151-0.329-1.314-0.232-1.589l6.738-1.477L32.305,48.43z"/>
	<path fill="#B1B1B1" d="M23.083,58.606l15.106-1.047l-0.001,0.002c-0.035,0.004-0.067,0.01-0.101,0.017
		c-0.072,0.01-0.146,0.028-0.214,0.05c-0.139,0.046-0.26,0.114-0.358,0.189c-0.216,0.175-0.3,0.395-0.29,0.603l0.009,0.175
		c0.01,0.209,0.12,0.426,0.352,0.578c0.102,0.071,0.23,0.127,0.377,0.164c0.069,0.018,0.143,0.028,0.218,0.034
		c0.079,0.007,0.156,0.01,0.235,0.006l-23.142,1.429c-0.135,0.006-0.147-1.645-0.082-1.65l6.649-0.459L23.083,58.606z"/>
	<path fill="#B1B1B1" d="M37.815,68.498c0.013,0,0.026,0.001,0.042,0.001l0.001,0.003L6.353,70.007
		c-0.175,0.008-0.295-0.008-0.418-0.049l0.011-1.005c0.117-0.054,0.244-0.081,0.417-0.091l6.196-0.312l1.314-0.066l24.017-1.211
		c-0.06,0.004-0.123,0.011-0.183,0.02c-0.061,0.009-0.116,0.021-0.17,0.037c-0.099,0.031-0.181,0.072-0.245,0.115
		c-0.091,0.062-0.146,0.127-0.179,0.193c-0.043,0.079-0.06,0.154-0.055,0.231l0.005,0.116c0.004,0.076,0.028,0.151,0.076,0.224
		c0.043,0.063,0.104,0.125,0.2,0.177c0.066,0.037,0.151,0.069,0.256,0.092c0.053,0.01,0.111,0.016,0.172,0.019
		C37.784,68.496,37.798,68.497,37.815,68.498z"/>
	<path fill="#B1B1B1" d="M38.414,108.347l-32.857,6.506l-0.235,0.021c0.042-0.021-0.099-2.408-0.161-2.424l33.176-6.046
		C38.401,106.42,38.463,108.334,38.414,108.347z"/>
	<path fill="#B1B1B1" d="M4.205,77.103l32.418-1.389c-0.618,0.069-0.15,1.464,0.146,1.467L4.994,78.308
		C5,78.297,4.6,78.44,4.032,78.022c-0.736-0.974-0.275-0.916,0.168-0.916L4.205,77.103z"/>
	<path fill="#B1B1B1" d="M37.358,97.753l-40.177,4.082l-0.148-2.077c0,0,40.13-3.76,40.153-3.726
		C37.221,96.09,37.384,97.751,37.358,97.753z"/>
	<path fill="#B1B1B1" d="M36.607,87.478c0.003,0.006,0.008,0.01,0.014,0.01l0.003,0.003L0.499,89.365l0.301-1.81l35.757-1.846
		c-0.006,0.004-0.013,0.01-0.017,0.012C36.531,85.733,36.6,87.474,36.607,87.478z"/>
	<g>
		<path fill="#F5F5F5" d="M44.343,20.751l26.943,2.028c-3.883,0.847-7.778,1.652-11.699,2.172c-0.095,0.015-0.19,0.01-0.284-0.016
			L54.812,23.8l-1.239-0.316l-9.989-2.522l-0.151-0.039v-0.005c0.07,0.013,0.139,0.013,0.204-0.003
			C43.874,20.87,44.109,20.812,44.343,20.751z"/>
		<path fill="#F5F5F5" d="M43.388,30.205l18.568,2.708c-4.42,0.554-8.85,1.007-13.288,1.342c-0.203,0.015-0.38-0.028-0.567-0.149
			l-4.01-2.535l-1.254-0.792l-0.719-0.457c0.112,0.014,0.233,0.013,0.368-0.004C42.786,30.287,43.087,30.249,43.388,30.205z"/>
		<path fill="#F5F5F5" d="M42.132,40.131l8.986,2.744c-4.665,0.35-10.059,0.625-14.73,0.828l4.29-3.552
			C41.016,40.129,41.791,40.156,42.132,40.131z"/>
		<path fill="#F5F5F5" d="M40.799,48.878l-1.022,2.063c-4.628,0.226-9.261,0.405-13.897,0.535l13.952-2.701
			C40.177,48.763,40.454,48.895,40.799,48.878z"/>
		<path fill="#F5F5F5" d="M39.423,58.974l-11.112,1.354c-4.321,0.18-8.639,0.342-12.962,0.478l23.123-1.799
			C38.789,58.993,39.104,58.985,39.423,58.974z"/>
	</g>
	<path fill="#F5F5F5" d="M44.054,18.448l0.289,2.303c-0.184,0.037-0.71,0.178-0.91,0.172c-0.526-0.085-0.721-0.749-0.734-1.004
		l-0.014-0.215c-0.016-0.267,0.066-0.536,0.222-0.752c0.078-0.109,0.176-0.202,0.286-0.274c0.05-0.033,0.099-0.059,0.152-0.082
		c0.038-0.014,0.075-0.026,0.114-0.033c0.016-0.007,0.028-0.007,0.043-0.01C43.687,18.52,43.87,18.486,44.054,18.448z"/>
	<path fill="#F5F5F5" d="M42.362,30.404c-0.507-0.035-0.73-0.357-0.758-1.009l-0.014-0.229c-0.032-0.755,0.224-1.097,0.914-1.167
		c0.081-0.01,0.161-0.018,0.241-0.028c0.143-0.017,0.286-0.034,0.427-0.05l0.134,2.405c-0.224,0.028-0.447,0.052-0.67,0.073
		C42.535,30.411,42.445,30.412,42.362,30.404z"/>
	<path fill="#F5F5F5" d="M40.285,38.177c0.136-0.408,0.421-0.748,0.898-0.762c0.263-0.016,0.522-0.037,0.784-0.056l0.17,2.857
		c-0.265,0.019-0.523,0.057-0.787,0.058C39.728,40.279,40.204,38.409,40.285,38.177z"/>
	<path fill="#F5F5F5" d="M40.583,46.797l0.216,4.158c-0.345,0.016-0.686,0.029-1.031,0.041c-0.088,0.005-0.175-0.005-0.264-0.022
		c-0.087-0.022-0.171-0.053-0.251-0.097c-0.166-0.084-0.32-0.217-0.451-0.387c-0.267-0.349-0.426-0.841-0.451-1.336l-0.02-0.401
		c-0.027-0.489,0.083-0.988,0.312-1.349c0.113-0.174,0.253-0.316,0.41-0.411c0.051-0.03,0.106-0.06,0.165-0.077l0.338-0.076
		C39.897,46.827,40.239,46.814,40.583,46.797z"/>
	<path fill="#F5F5F5" d="M39.208,56.293l0.214,4.204c-0.318,0.011-0.634,0.02-0.952,0.031c-0.079,0.004-0.157-0.008-0.236-0.028
		c-0.075-0.019-0.15-0.049-0.221-0.091c-0.149-0.094-0.282-0.232-0.389-0.403c-0.242-0.364-0.366-0.87-0.39-1.354l-0.02-0.401
		c-0.023-0.479,0.046-0.981,0.252-1.369c0.094-0.168,0.211-0.317,0.347-0.415c0.067-0.046,0.141-0.083,0.212-0.104
		c0.033-0.01,0.065-0.022,0.101-0.027c0.043-0.01,0.085-0.018,0.13-0.014C38.578,56.313,38.893,56.302,39.208,56.293z"/>
	<path fill="#F5F5F5" d="M38.078,67.265l0.062,1.221l-0.538,0.022c-0.01,0-0.018-0.001-0.027-0.003
		c-0.035-0.004-0.069-0.011-0.1-0.023c-0.061-0.021-0.11-0.057-0.149-0.095c-0.057-0.055-0.092-0.116-0.119-0.182
		c-0.029-0.072-0.044-0.147-0.048-0.226l-0.005-0.115c-0.004-0.077,0.003-0.152,0.027-0.23c0.018-0.064,0.048-0.13,0.099-0.189
		c0.037-0.041,0.083-0.082,0.139-0.11c0.03-0.015,0.062-0.024,0.097-0.033c0.034-0.008,0.07-0.014,0.105-0.017
		C37.774,67.28,37.926,67.272,38.078,67.265z"/>
	<path fill="#F5F5F5" d="M37.368,77.106c-0.177,0.019-0.177,0.019-0.599,0.074c-0.262-0.22-0.754-1.218-0.146-1.467
		c0.177-0.023,0.353-0.04,0.531-0.053L37.368,77.106z"/>
	<path fill="#F5F5F5" d="M36.785,85.631l0.088,1.839l-0.276,0.01c-0.011-0.024-0.068-1.785-0.059-1.797
		C36.541,85.681,36.706,85.642,36.785,85.631z"/>
	<path fill="#F5F5F5" d="M5.322,114.872c-2.401-0.494-4.341-1.223-6.982-2.521l-0.132-2.111c2.548,0.937,4.576,1.787,6.953,2.21
		C5.223,112.464,5.401,114.886,5.322,114.872z"/>
	<path fill="#FFFFFF" d="M70.873,12.252c-1.454-3.22-3.89-6.703-6.681-9.553c-3.269-2.834-3.611-3.13-6.612-4.796
		C54-3.76,50.532-5.114,44.306-4.838c-2.015,0.204-2.015,0.204-3.04,0.394C39.48-4.063,39.48-4.063,38.59-3.809
		c-1.657,0.515-1.657,0.515-2.482,0.827c-1.609,0.647-1.609,0.647-2.413,1.022c-1.632,0.799-1.632,0.799-2.451,1.258
		c-1.661,0.967-1.725,1.005-2.601,1.58c-1.831,1.252-1.901,1.301-2.886,2.059c-2.065,1.659-2.188,1.758-3.367,2.829
		c-2.412,2.299-2.609,2.488-4.134,4.154c-2.668,3.088-3.149,3.644-5.307,6.583c-2.79,4.082-3.539,5.179-6.373,10.235
		c-1.72,3.384-2.535,4.985-3.377,6.858C18.532,2.356,53.59-12.558,60.922,9.047l0,0c6.317,18.944-22.676,39.207-35.058,47.858
		C16.834,63.217-7.022,79.897-7.154,94.493c0.232,2.709,0.577,5.611,1.136,8.663c0.468,2.184,1.099,5.094,1.65,7.198l-0.229-1.188
		c-0.379-8.91,8.181-18.927,15.428-25.759c17.577-16.572,36.392-24.814,54.195-39.879C69.044,40.128,77.928,27.883,70.873,12.252z"
		/>
</g>
<g>
	<g>
		<path fill="#F5F5F5" d="M355.373,75.661c0.176,0.013,0.352,0.029,0.528,0.053l32.418,1.389l0.007,0.004
			c0.055-0.088,0.11-0.18,0.168-0.27l-0.002-0.004c-0.267-0.025-0.527-0.053-0.794-0.074l-0.002,0.092
			c-0.399,0.336-0.711-0.017-1.067-0.035c-0.094-0.008-0.189-0.016-0.283-0.033l0.004-0.148c-0.633-0.062-1.268-0.113-1.902-0.168
			L355.373,75.661z"/>
		<path fill="#F5F5F5" d="M354.188,106.403l33.178,6.045c2.378-0.424,4.693-0.545,6.953-2.211l-39.666-3.955
			C354.498,106.333,354.346,106.371,354.188,106.403z"/>
		<path fill="#F5F5F5" d="M391.697,86.657l-35.957-1.026c0.08,0.021,0.156,0.047,0.229,0.081l35.693,1.957L391.697,86.657z"/>
		<path fill="#F5F5F5" d="M355.416,95.944l39.268,3.828l0.025-1.891l-39.183-2.048C355.502,95.903,355.469,95.931,355.416,95.944z"
			/>
	</g>
	<polygon fill="#B1B1B1" points="321.574,20.9 321.312,22.855 348.184,20.751 348.477,18.448 339.385,19.274 338.158,19.387 
		329.162,20.208 327.9,20.323 	"/>
	<polygon fill="#B1B1B1" points="330.803,31.039 330.57,32.913 349.359,30.236 349.359,27.921 348.725,28.026 338.76,29.698 
		337.521,29.911 	"/>
	<polygon fill="#B1B1B1" points="341.508,40.441 341.408,42.774 350.457,40.174 350.566,37.359 349.412,37.751 348.174,38.169 	"/>
	<path fill="#B1B1B1" d="M351.848,40.151l4.289,3.552c0.186-0.562-0.049-1.94,0-2.106l-4.289-4.006
		C351.953,37.882,352.262,39.075,351.848,40.151z"/>
	<path fill="#B1B1B1" d="M360.221,48.43l-1.211-0.265c0,0-5.588-1.203-5.537-1.173c0.156,0.095-0.283,1.884-0.369,1.906
		c-0.09,0.017,13.625,2.58,13.625,2.58c-0.082-0.151,0.328-1.314,0.232-1.589l-6.738-1.477L360.221,48.43z"/>
	<path fill="#B1B1B1" d="M369.443,58.606l-15.106-1.047l0.002,0.002c0.035,0.004,0.067,0.01,0.102,0.017
		c0.07,0.01,0.146,0.028,0.213,0.05c0.14,0.046,0.263,0.114,0.359,0.189c0.217,0.175,0.299,0.395,0.289,0.603l-0.008,0.175
		c-0.01,0.209-0.121,0.426-0.353,0.578c-0.102,0.071-0.229,0.127-0.377,0.164c-0.067,0.018-0.143,0.028-0.219,0.034
		c-0.078,0.007-0.154,0.01-0.234,0.006l23.144,1.429c0.135,0.006,0.146-1.645,0.082-1.65l-6.65-0.459L369.443,58.606z"/>
	<path fill="#B1B1B1" d="M354.711,68.498c-0.015,0-0.027,0.001-0.043,0.001v0.003l31.504,1.505c0.176,0.008,0.297-0.008,0.42-0.049
		l-0.012-1.005c-0.117-0.054-0.244-0.081-0.418-0.091l-6.195-0.312l-1.314-0.066l-24.018-1.211c0.061,0.004,0.123,0.011,0.184,0.02
		c0.062,0.009,0.115,0.021,0.17,0.037c0.099,0.031,0.181,0.072,0.244,0.115c0.092,0.062,0.146,0.127,0.181,0.193
		c0.043,0.079,0.059,0.154,0.055,0.231l-0.006,0.116c-0.004,0.076-0.027,0.151-0.074,0.224c-0.043,0.063-0.104,0.125-0.199,0.177
		c-0.067,0.037-0.151,0.069-0.258,0.092c-0.053,0.01-0.111,0.016-0.172,0.019C354.742,68.496,354.729,68.497,354.711,68.498z"/>
	<path fill="#B1B1B1" d="M354.111,108.347l32.857,6.506l0.234,0.021c-0.041-0.021,0.1-2.408,0.161-2.424l-33.178-6.046
		C354.125,106.42,354.062,108.334,354.111,108.347z"/>
	<path fill="#B1B1B1" d="M388.32,77.103l-32.418-1.389c0.619,0.069,0.15,1.464-0.146,1.467l31.774,1.127
		c-0.006-0.011,0.396,0.133,0.964-0.285c0.735-0.974,0.274-0.916-0.168-0.916L388.32,77.103z"/>
	<path fill="#B1B1B1" d="M355.168,97.753l40.178,4.082l0.148-2.077c0,0-40.132-3.76-40.154-3.726
		C355.305,96.09,355.143,97.751,355.168,97.753z"/>
	<path fill="#B1B1B1" d="M355.918,87.478c-0.002,0.006-0.008,0.01-0.013,0.01l-0.004,0.003l36.125,1.876l-0.301-1.811l-35.758-1.845
		c0.008,0.004,0.014,0.01,0.018,0.013C355.996,85.733,355.926,87.474,355.918,87.478z"/>
	<g>
		<path fill="#F5F5F5" d="M348.184,20.751l-26.943,2.028c3.884,0.847,7.777,1.652,11.699,2.172c0.097,0.015,0.189,0.01,0.283-0.016
			l4.492-1.135l1.24-0.316l9.987-2.522l0.15-0.039v-0.005c-0.07,0.013-0.139,0.013-0.203-0.003
			C348.652,20.87,348.418,20.812,348.184,20.751z"/>
		<path fill="#F5F5F5" d="M349.139,30.205l-18.568,2.708c4.42,0.554,8.851,1.007,13.287,1.342c0.203,0.015,0.379-0.028,0.566-0.149
			l4.012-2.535l1.252-0.792l0.722-0.457c-0.111,0.014-0.232,0.013-0.369-0.004C349.738,30.287,349.439,30.249,349.139,30.205z"/>
		<path fill="#F5F5F5" d="M350.395,40.131l-8.985,2.744c4.663,0.35,10.059,0.625,14.729,0.828l-4.289-3.552
			C351.51,40.129,350.734,40.156,350.395,40.131z"/>
		<path fill="#F5F5F5" d="M351.727,48.878l1.023,2.063c4.627,0.226,9.26,0.405,13.896,0.535l-13.953-2.701
			C352.35,48.763,352.072,48.895,351.727,48.878z"/>
		<path fill="#F5F5F5" d="M353.104,58.974l11.111,1.354c4.32,0.18,8.639,0.342,12.963,0.478l-23.123-1.799
			C353.736,58.993,353.422,58.985,353.104,58.974z"/>
	</g>
	<path fill="#F5F5F5" d="M348.473,18.448l-0.289,2.303c0.185,0.037,0.711,0.178,0.91,0.172c0.525-0.085,0.721-0.749,0.734-1.004
		l0.014-0.215c0.016-0.267-0.066-0.536-0.223-0.752c-0.076-0.109-0.177-0.202-0.285-0.274c-0.051-0.033-0.101-0.059-0.152-0.082
		c-0.037-0.014-0.076-0.026-0.113-0.033c-0.016-0.007-0.028-0.007-0.043-0.01C348.84,18.52,348.656,18.486,348.473,18.448z"/>
	<path fill="#F5F5F5" d="M350.164,30.404c0.506-0.035,0.729-0.357,0.758-1.009l0.014-0.229c0.033-0.755-0.223-1.097-0.914-1.167
		c-0.08-0.01-0.16-0.018-0.24-0.028c-0.143-0.017-0.286-0.034-0.428-0.05l-0.133,2.405c0.223,0.028,0.447,0.052,0.67,0.073
		C349.99,30.411,350.082,30.412,350.164,30.404z"/>
	<path fill="#F5F5F5" d="M352.24,38.177c-0.135-0.408-0.42-0.748-0.896-0.762c-0.264-0.016-0.523-0.037-0.785-0.056l-0.17,2.857
		c0.264,0.019,0.523,0.057,0.787,0.058C352.797,40.279,352.322,38.409,352.24,38.177z"/>
	<path fill="#F5F5F5" d="M351.943,46.797l-0.217,4.158c0.346,0.016,0.687,0.029,1.031,0.041c0.088,0.005,0.174-0.005,0.264-0.022
		c0.086-0.022,0.172-0.053,0.25-0.097c0.168-0.084,0.32-0.217,0.451-0.387c0.268-0.349,0.428-0.841,0.451-1.336l0.021-0.401
		c0.025-0.489-0.084-0.988-0.312-1.349c-0.113-0.174-0.254-0.316-0.41-0.411c-0.051-0.03-0.105-0.06-0.166-0.077l-0.336-0.076
		C352.629,46.827,352.287,46.814,351.943,46.797z"/>
	<path fill="#F5F5F5" d="M353.316,56.293l-0.213,4.204c0.318,0.011,0.633,0.02,0.951,0.031c0.078,0.004,0.156-0.008,0.236-0.028
		c0.073-0.019,0.149-0.049,0.221-0.091c0.148-0.094,0.281-0.232,0.389-0.403c0.242-0.364,0.365-0.87,0.392-1.354l0.02-0.401
		c0.023-0.479-0.047-0.981-0.252-1.369c-0.094-0.168-0.211-0.317-0.348-0.415c-0.068-0.046-0.142-0.083-0.211-0.104
		c-0.033-0.01-0.066-0.022-0.103-0.027c-0.043-0.01-0.086-0.018-0.131-0.014C353.947,56.313,353.633,56.302,353.316,56.293z"/>
	<path fill="#F5F5F5" d="M354.449,67.265l-0.062,1.221l0.537,0.022c0.01,0,0.018-0.001,0.027-0.003
		c0.034-0.004,0.067-0.011,0.1-0.023c0.062-0.021,0.111-0.057,0.15-0.095c0.057-0.055,0.092-0.116,0.118-0.182
		c0.027-0.072,0.043-0.147,0.047-0.226l0.007-0.115c0.004-0.077-0.004-0.152-0.027-0.23c-0.018-0.064-0.047-0.13-0.098-0.189
		c-0.037-0.041-0.084-0.082-0.14-0.11c-0.03-0.015-0.062-0.024-0.098-0.033c-0.036-0.008-0.07-0.014-0.105-0.017
		C354.752,67.28,354.6,67.272,354.449,67.265z"/>
	<path fill="#F5F5F5" d="M355.158,77.106c0.176,0.019,0.176,0.019,0.598,0.074c0.262-0.22,0.754-1.218,0.146-1.467
		c-0.178-0.023-0.354-0.04-0.528-0.053L355.158,77.106z"/>
	<path fill="#F5F5F5" d="M355.74,85.631l-0.086,1.839l0.273,0.01c0.012-0.024,0.068-1.785,0.061-1.797
		C355.984,85.681,355.82,85.642,355.74,85.631z"/>
	<path fill="#F5F5F5" d="M387.203,114.872c2.401-0.494,4.342-1.223,6.981-2.521l0.133-2.111c-2.549,0.937-4.575,1.787-6.953,2.21
		C387.303,112.464,387.125,114.886,387.203,114.872z"/>
	<path fill="#FFFFFF" d="M321.652,12.252c1.455-3.22,3.892-6.703,6.683-9.553c3.268-2.834,3.61-3.13,6.61-4.796
		c3.578-1.663,7.05-3.017,13.275-2.741c2.014,0.204,2.014,0.204,3.039,0.394c1.785,0.381,1.785,0.381,2.676,0.635
		c1.656,0.515,1.656,0.515,2.482,0.827c1.608,0.647,1.608,0.647,2.412,1.022c1.631,0.799,1.631,0.799,2.45,1.258
		c1.66,0.967,1.728,1.005,2.603,1.58c1.83,1.252,1.899,1.301,2.887,2.059c2.064,1.659,2.187,1.758,3.365,2.829
		c2.412,2.299,2.609,2.488,4.135,4.154c2.668,3.088,3.148,3.644,5.307,6.583c2.789,4.082,3.539,5.179,6.373,10.235
		c1.722,3.384,2.533,4.985,3.377,6.858c-15.332-31.24-50.391-46.154-57.723-24.549l0,0c-6.315,18.944,22.678,39.207,35.06,47.858
		c9.028,6.311,32.885,22.99,33.018,37.587c-0.232,2.709-0.576,5.612-1.137,8.663c-0.467,2.184-1.099,5.094-1.65,7.197l0.23-1.187
		c0.379-8.91-8.183-18.927-15.429-25.759c-17.577-16.573-36.393-24.815-54.194-39.88C323.482,40.128,314.6,27.883,321.652,12.252z"
		/>
</g>
<text transform="matrix(1 0 0 1 85.917 35.373)"><tspan x="0" y="0" font-family="'MyriadPro-Regular'" font-size="24">Gonzalez</tspan><tspan x="0" y="57.6" font-family="'MyriadPro-Regular'" font-size="12">    </tspan><tspan x="10.176" y="57.6" font-family="'MyriadPro-Regular'" font-size="48">Welcome</tspan></text>
</svg>
